# xmcd
#
# Track frame offsets: 
#        150
#        34355
#        56478
#        77578
#        97285
#        117360
#        140218
#        159088
#        186248
#        208290
#
# Disc length: 3226 seconds
#
# Revision: 3
# Processed by: cddbd v1.5.2PL0 Copyright (c) Steve Scherf et al.
# Submitted via: ExactAudioCopy v0.95b4
#
DISCID=930c980a
DTITLE=Various Artist - Mixx-It-7th Anniversary [CD3]
DYEAR=1992
DGENRE=Blues
TTITLE0=Mary J. Blige - Reminisce - What's The 411 (Mixx It)
TTITLE1=INXS - Need You Tonight (Mixx It)
TTITLE2=SWV - I'm So Into You (Mixx It)
TTITLE3=Bobby Brown - Don't Be Cruel (Mixx It)
TTITLE4=Michael Jackson - The Way You Make Me Feel (Mixx It)
TTITLE5=MC Hammer - You Can't Touch This (Mixx It)
TTITLE6=Janet Jackson - State Of The World (Mixx It)
TTITLE7=Keith Sweat - I Want Her (Mixx It)
TTITLE8=Information Society - What's On Your Mind (Pure Energy) (Mixx 
TTITLE8=It)
TTITLE9=BBD,Ralph T,Brown Bobby - New Edition and BBD Medley (Mixx It)
EXTD=
EXTT0=
EXTT1=
EXTT2=
EXTT3=
EXTT4=
EXTT5=
EXTT6=
EXTT7=
EXTT8=
EXTT9=
PLAYORDER=
